<?xml version="1.0" encoding="utf-8"?>
<!-- Generator: Adobe Illustrator 23.0.1, SVG Export Plug-In . SVG Version: 6.00 Build 0)  -->
<svg version="1.1" id="Layer_1" xmlns="http://www.w3.org/2000/svg" xmlns:xlink="http://www.w3.org/1999/xlink" x="0px" y="0px"
	 width="416.7px" height="601px" viewBox="0 0 416.7 601" style="enable-background:new 0 0 416.7 601;" xml:space="preserve">
<style type="text/css">
	.st0{fill:#4A280C;}
	.st1{fill:#6C5C48;}
	.st2{fill:#FEB0C0;}
</style>
<g>
	<path class="st0" d="M154.7,562h17.2c10.3,0,15.2,7.1,15.2,14.9c0,8.2-4.9,15.1-15.2,15.1h-7.2v9h-10V562z M164.7,571v12h6.7
		c4.2,0,5.8-2.6,5.8-6.1c0-3.1-1.6-5.9-5.8-5.9H164.7z"/>
	<path class="st0" d="M212.7,562v39h-10v-39H212.7z"/>
	<path class="st0" d="M229.7,562h17.2c10.3,0,15.2,7.1,15.2,14.9c0,8.2-4.9,15.1-15.2,15.1h-7.2v9h-10V562z M239.7,571v12h6.7
		c4.2,0,5.8-2.6,5.8-6.1c0-3.1-1.6-5.9-5.8-5.9H239.7z"/>
</g>
<g>
	<path class="st1" d="M302.7,410.5c-1.7-0.7-3.4-1.4-5.1-2.1c0-0.7,0,0.3,0.1-0.4c5.2-0.6,9.9-3.8,12-8.9c3.2-7.5-0.3-17.4-7.8-20.6
		c-1.5-0.6-3-1.2-4.6-1.6c-0.1-1.7-0.1-0.9-0.2-2.6c4.3-1.6,7.8-5.1,9.1-9.9c2.1-7.5-2.6-17.1-9.8-19.7c-0.1,0-0.2-0.1-0.3-0.1
		c-0.2-0.1-0.4-0.1-0.6-0.2c-0.8-0.2-1.6-0.4-2.3-0.6c0,0,0-0.1,0-0.1c-0.9-0.3-1.9-0.5-2.8-0.8c5.3-2.9,8.7-8.1,8.7-15.1
		c0-11.1-9.5-15.5-23.3-15.8h-1.7c7.3-3,10.8-7.6,10.6-17.9c-0.1-7.6-8-14.9-19.4-15.2l-2.4,0.1c-0.7-5.2-4.4-17.7-6.1-22.7
		c-1.2-3.6-3.4-7.8-5.7-11.7c-2.1-3.5-4.1-4-5.9-5.5c-1.8-1.5-2.9-1.7-5.2-1.4c-1.8,0.3-3.4,1.3-4.7,2.6c-1.3,1.3-2.2,2.9-3,4.5
		c-3.6,7.3-3.3,8-5.4,16.5l-0.3,0h-29.8l-0.3,0c-0.8-6.9-1.8-8-4.8-16.5c-0.6-1.7-2.3-3.2-3.6-4.5c-1.3-1.3-2.9-2.3-4.7-2.6
		c-2.3-0.3-4.6-0.1-6.4,1.4c-1.8,1.5-4.3,4-5.3,6.1c-2,4-4.2,7.3-5.1,11.7c-1,5.2-4.2,16.3-4.9,21.5l-2.4-0.1
		c-10.7,1.3-20.8,5.4-21.2,16.4c-0.4,9.8,3.9,14.3,11.2,17.3h-1.7c-13.8,0.3-22.1,8.5-22.1,17c0,6.2,1.6,12.7,11,15.3
		c-5.7,0.6-11.4,1.3-16.3,6.2c-3.9,3.6-5.5,10.6-3.7,16c1.3,3.8,4.2,6.7,7.6,8.1c-0.2,1.5-0.4,0.7-0.5,2.2c-0.5,0.2-0.9,0.4-1.4,0.6
		c-10.7,4.7-12.1,14.1-8.2,22.1c1.6,3.4,4.9,5.3,8,6.9c0.1,1.8,0.2-0.1,0.4,1.7c-0.8,0.3-1.6,0.7-2.4,1c-6.8,3-10.4,12.1-7.4,18.9
		c2.2,5,7.7,7.9,12.8,7.9c1,0,2-0.1,3-0.4c0,0.1,0.1,0.2,0.1,0.3c-0.3,0.2-0.5,0.4-0.8,0.6c-7.5,3.1-8.9,15.5-4.7,21.6
		c2.9,4.3,9,6.2,13.6,6.3c0.7,10.6,8.9,19,19.7,19c3.7,0,7.2-1,10.3-2.8c3.4,6.5,10.2,11,18.1,11c5.6,0,10.6-2.2,14.3-5.8
		c1.3,4.3,3.2,8.3,8.1,8.3c0.5,0,3.9-0.7,4.5-0.8c2.7-0.3,3.1-4.1,5-5.7c4.2,5,13.8,3.5,16.5-0.8c0.8,2.2,5.1,4.2,7.2,4.2
		c0.5,0,4.1-0.5,4.6-0.6c3.2-0.4,5.6-5.3,6.4-8c0.1-0.4,0.2-0.8,0.3-1.1c3.4,2.6,7.7,3.5,12.3,3.5c9.5,0,21.8-9.6,20.3-17.6
		c11-0.3,19.2-6.9,19.2-18c0-3.4-2-5.3-3.5-8.1c4.8-1.2,10.2-7.2,11.2-12.9C312,421.8,309.5,413.4,302.7,410.5z"/>
	<g>
		<g>
			<g>
				<path class="st0" d="M163.2,492.7c-0.2,0-0.5,0-0.7-0.1c-2.2-0.4-3.7-2.5-3.3-4.7c1.5-8.1,4.2-14.4,9.9-23.1
					c1.2-1.9,3.8-2.4,5.6-1.1c1.9,1.2,2.4,3.8,1.1,5.6c-5.2,7.8-7.5,13.1-8.7,20.1C166.8,491.3,165.1,492.7,163.2,492.7z"/>
			</g>
			<g>
				<path class="st0" d="M127.9,478.7c-0.8,0-1.7-0.3-2.4-0.8c-1.8-1.3-2.2-3.9-0.9-5.7c5.3-7.1,11.4-12.5,19.7-17.5
					c1.9-1.1,4.4-0.5,5.6,1.4c1.1,1.9,0.5,4.4-1.4,5.6c-7.4,4.4-12.7,9.1-17.3,15.3C130.4,478.2,129.2,478.7,127.9,478.7z"/>
			</g>
			<g>
				<path class="st0" d="M111.6,452.5c-1,0-2.1-0.4-2.9-1.2c-1.6-1.6-1.6-4.2,0-5.8c6.5-6.5,13.5-11.3,21.8-15c2-0.9,4.5,0,5.4,2.1
					s0,4.5-2.1,5.4c-7.4,3.3-13.5,7.5-19.4,13.4C113.6,452.1,112.6,452.5,111.6,452.5z"/>
			</g>
			<g>
				<path class="st0" d="M105.1,420.8c-1.2,0-2.3-0.5-3.1-1.5c-1.4-1.7-1.2-4.3,0.6-5.7c8.6-7,19-11.8,27.2-12.3
					c2.2-0.1,4.2,1.5,4.3,3.8s-1.5,4.2-3.8,4.3c-6.5,0.4-15.4,4.6-22.7,10.5C106.9,420.5,106,420.8,105.1,420.8z"/>
			</g>
			<g>
				<path class="st0" d="M108.3,385.6c-1.3,0-2.5-0.6-3.3-1.7c-1.3-1.8-0.9-4.4,0.9-5.7c9.8-7.2,22.1-9.4,28.6-10.1
					c2.2-0.2,4.2,1.4,4.5,3.6s-1.4,4.2-3.6,4.5c-9.6,1-18.6,4.2-24.7,8.6C109.9,385.4,109.1,385.6,108.3,385.6z"/>
			</g>
			<g>
				<path class="st0" d="M124.6,318.7c-1.5,0-2.9-0.8-3.6-2.1c-1.1-2-0.3-4.4,1.7-5.5c9-4.8,21.2-6.4,30.4-3.8
					c2.2,0.6,3.4,2.8,2.8,5c-0.6,2.2-2.8,3.4-5,2.9c-7.2-2-17.3-0.7-24.5,3.2C125.9,318.5,125.2,318.7,124.6,318.7z"/>
			</g>
			<g>
				<path class="st0" d="M134.3,285.5c-1.6,0-3.2-1-3.8-2.6c-0.8-2.1,0.2-4.4,2.3-5.3c9.2-3.6,19.2-4.5,27.3-2.5
					c2.2,0.5,3.5,2.7,3,4.9c-0.5,2.2-2.7,3.5-4.9,3c-6.5-1.6-14.7-0.8-22.4,2.2C135.3,285.4,134.8,285.5,134.3,285.5z"/>
			</g>
			<g>
				<path class="st0" d="M116.1,351.8c-1.5,0-2.9-0.8-3.6-2.1c-1.1-2-0.3-4.4,1.7-5.5c8.3-4.4,21.4-6.9,29.9-5.7
					c2.2,0.3,3.8,2.4,3.5,4.6c-0.3,2.2-2.4,3.8-4.6,3.5c-6.8-1-18.2,1.3-25,4.9C117.5,351.7,116.8,351.8,116.1,351.8z"/>
			</g>
		</g>
		<g>
			<g>
				<path class="st0" d="M296.1,478.7c-1.2,0-2.5-0.6-3.3-1.6c-4.6-6.2-10-10.9-17.3-15.3c-1.9-1.1-2.6-3.6-1.4-5.6
					c1.1-1.9,3.6-2.6,5.6-1.4c8.4,4.9,14.4,10.3,19.7,17.5c1.3,1.8,1,4.4-0.9,5.7C297.7,478.5,296.9,478.7,296.1,478.7z"/>
			</g>
			<g>
				<path class="st0" d="M312.4,452.5c-1,0-2.1-0.4-2.9-1.2c-5.8-5.8-12-10.1-19.4-13.4c-2.1-0.9-3-3.3-2.1-5.4
					c0.9-2.1,3.3-3,5.4-2.1c8.3,3.7,15.3,8.5,21.8,15c1.6,1.6,1.6,4.2,0,5.8C314.5,452.1,313.5,452.5,312.4,452.5z"/>
			</g>
			<g>
				<path class="st0" d="M318.9,420.8c-0.9,0-1.8-0.3-2.6-0.9c-7.2-5.9-16.1-10.1-22.7-10.5c-2.2-0.2-3.9-2.1-3.8-4.3
					s2.1-3.9,4.3-3.8c8.2,0.6,18.7,5.3,27.2,12.3c1.7,1.4,2,4,0.6,5.7C321.2,420.3,320.1,420.8,318.9,420.8z"/>
			</g>
			<g>
				<path class="st0" d="M315.7,385.6c-0.8,0-1.7-0.3-2.4-0.8c-6.1-4.4-15.1-7.5-24.7-8.6c-2.2-0.2-3.8-2.2-3.6-4.5s2.2-3.8,4.5-3.6
					c6.4,0.7,18.7,2.9,28.6,10.1c1.8,1.3,2.2,3.9,0.9,5.7C318.2,385,317,385.6,315.7,385.6z"/>
			</g>
			<g>
				<path class="st0" d="M299.4,318.7c-0.6,0-1.3-0.2-1.9-0.5c-7.2-3.8-17.2-5.1-24.5-3.2c-2.2,0.6-4.4-0.7-5-2.9
					c-0.6-2.2,0.7-4.4,2.8-5c9.2-2.5,21.5-1,30.4,3.8c2,1.1,2.7,3.5,1.7,5.5C302.3,317.9,300.9,318.7,299.4,318.7z"/>
			</g>
			<g>
				<path class="st0" d="M289.7,285.5c-0.5,0-1-0.1-1.5-0.3c-7.7-3-15.9-3.8-22.4-2.2c-2.2,0.5-4.4-0.8-4.9-3
					c-0.5-2.2,0.8-4.4,3-4.9c8.1-2,18-1.1,27.3,2.5c2.1,0.8,3.1,3.2,2.3,5.3C292.9,284.5,291.4,285.5,289.7,285.5z"/>
			</g>
			<g>
				<path class="st0" d="M307.9,351.8c-0.6,0-1.3-0.2-1.9-0.5c-6.7-3.6-18.2-5.8-25-4.9c-2.2,0.3-4.3-1.2-4.6-3.5
					c-0.3-2.2,1.2-4.3,3.5-4.6c8.5-1.2,21.7,1.3,29.9,5.7c2,1.1,2.7,3.5,1.7,5.5C310.7,351,309.3,351.8,307.9,351.8z"/>
			</g>
		</g>
		<g transform="matrix( 1, 0, 0, 1, 0,0) ">
			<g>
				<g id="Pip_0_Layer3_12_1_STROKES_4_">
					<path class="st0" d="M241.3,495.1c-1.4,0-2.8-0.2-4.3-0.7c-3.1-1-5.6-2.8-7.4-5.1c-1.7-2.2-3.1-5.2-4-8.9c0,0,0-0.1,0-0.1
						c-0.8-3.7-0.5-8.8,0.9-15.5c0.5-2.2,2.6-3.6,4.8-3.2c2.2,0.4,3.6,2.6,3.2,4.8c-1.4,6.8-1.3,10.4-0.9,12.2
						c0.6,2.5,1.4,4.4,2.4,5.7c0.9,1.1,2,1.9,3.6,2.4c1.3,0.4,2.4,0.4,3.6-0.1c1.2-0.4,2.1-1.2,2.8-2.5c0.6-1,0.9-2.7,0.7-4.9
						c-0.2-2.1-1.2-4.8-2.9-7.7l-2.8-4.4c-1.2-1.9-0.6-4.4,1.3-5.6c1.9-1.2,4.4-0.6,5.6,1.3l2.8,4.5c0,0,0.1,0.1,0.1,0.1
						c2.4,4.1,3.7,7.7,4,11.2c0.3,3.9-0.3,7.2-1.9,9.8c-1.8,2.8-4.1,4.8-6.9,5.8C244.5,494.8,242.9,495.1,241.3,495.1z"/>
				</g>
			</g>
		</g>
		<g transform="matrix( 1, 0, 0, 1, 0,0) ">
			<g>
				<g id="Pip_0_Layer3_17_1_STROKES_4_">
					<path class="st0" d="M207.5,498.2c-0.3,0-0.6,0-0.9,0c-4.6-0.4-8.3-2.6-10.9-6.4c-2.1-3-3.1-6.9-3.1-11.6c0-1.1,0.1-3.4,1-10.3
						c0.3-2.2,2.4-3.8,4.6-3.5c2.2,0.3,3.8,2.4,3.5,4.6c-0.8,6.2-0.9,8.4-0.9,9.2c0,3.1,0.6,5.5,1.7,7.1c1.2,1.9,2.7,2.7,4.7,2.9
						c1.9,0.1,3.2-0.5,4.4-2.1c1.4-1.8,1.8-4.5,1.2-8.2c-0.5-3.4-1.6-6.8-3.4-10.3c-1-2-0.2-4.4,1.8-5.5c2-1,4.4-0.2,5.5,1.8
						c2.2,4.3,3.6,8.6,4.2,12.8c0.9,6,0,10.8-2.8,14.4C215.4,496.4,211.7,498.2,207.5,498.2z"/>
				</g>
			</g>
		</g>
		<g id="face">
			<path class="st2" d="M212.9,289.5c-1.9-0.9-4.3,0.1-5.4,1.8c-1.2,1.7-1.3,3.4-0.7,5.4c0.6,2.2,2.2,4.3,4.5,4.8
				c2.8,0.6,5.7-1.9,6.1-4.8c0.5-2.8-1-5.1-3.2-7"/>
			<g>
				<path class="st0" d="M211.9,306.2c-1.6,0-3.3-0.4-4.7-1.3c-3.8-2.3-4.6-5.3-5.2-8c-0.1-0.6-0.3-1.5-0.4-2.3
					c-0.1-0.7-0.2-1.4-0.4-2c-0.5-2.2,1-4.3,3.2-4.8c2.2-0.5,4.4,1,4.8,3.2c0.1,0.6,0.3,1.4,0.4,2.2c0.1,0.7,0.2,1.4,0.4,2
					c0.4,1.9,0.6,2.1,1.5,2.7c0.2,0.1,0.6,0.2,0.8,0.1c0.6-0.2,1.1-1.3,1.4-2.8c0.1-0.5,0.2-1.2,0.4-1.8c0.2-0.8,0.4-1.6,0.4-2
					c0.2-2.2,2.3-3.8,4.5-3.6c2.2,0.2,3.8,2.3,3.6,4.5c-0.1,0.9-0.3,2-0.6,3c-0.1,0.5-0.2,1-0.3,1.5c-1.1,5.5-4,7.7-6.2,8.7
					C214.3,306,213.1,306.2,211.9,306.2z"/>
			</g>
			<g>
				<path class="st0" d="M217.5,295.2c-1.2,0-2.4-0.2-3.5-0.6c-0.8-0.3-1.6-0.7-2.3-1.2c-0.7,0.5-1.4,0.9-2.2,1.2
					c-2.9,1.1-6.2,0.8-8.9-0.8c-1.6-0.9-2.8-2.3-3.7-4.3c-0.6-1.3-0.7-2.2-0.8-3.2c0-0.2,0-0.3,0-0.5c-0.2-2.2,1.4-4.2,3.6-4.5
					c2.2-0.2,4.2,1.4,4.5,3.6c0,0.4,0.1,0.6,0.1,0.9c0,0.1,0,0.1,0,0.2c0,0,0,0,0,0.1c0.2,0.5,0.4,0.6,0.4,0.6
					c0.6,0.3,1.4,0.4,2,0.2c0.5-0.2,0.5-0.4,0.6-0.5c0.2-0.6,0.4-1,0.4-1.4c0-0.6,0-1.2,0-1.9c0-0.2,0-0.3,0-0.5
					c-0.1-1.1,0.3-2.2,1.1-3c0.8-0.8,1.8-1.3,3-1.3s2.2,0.5,3,1.3c0.8,0.8,1.2,1.9,1.1,3c0,0.2,0,0.4,0,0.5c0,0.7,0,1.3,0,2
					c0.1,0.4,0.2,0.8,0.4,1.4c0,0.1,0.1,0.4,0.6,0.5c0.6,0.2,1.4,0.1,2-0.2c0,0,0.1-0.1,0.3-0.6c0,0,0-0.1,0-0.1c0-0.1,0-0.1,0-0.2
					c0-0.3,0-0.5,0.1-0.9c0.2-2.2,2.2-3.9,4.5-3.6c2.2,0.2,3.9,2.2,3.6,4.5c0,0.2,0,0.4,0,0.5c-0.1,1-0.1,1.9-0.8,3.2
					c-0.9,1.9-2.1,3.4-3.7,4.2C221.2,294.8,219.4,295.2,217.5,295.2z"/>
			</g>
			<circle class="st0" cx="237.2" cy="291.7" r="7.5"/>
			<circle class="st0" cx="186.6" cy="291.7" r="7.5"/>
			<g>
				<path class="st0" d="M256.2,271.6c-2,0-3.8-1.5-4-3.5c-0.4-3.1-0.6-3.8-0.9-5.2c-0.2-0.9-0.5-2-0.9-4c-0.8-3.9-1.6-6.9-3.6-10.6
					c-2.1-4.2-4.6-5.2-5.1-5.3c-0.8,0-2,0.7-3,1.7c-0.8,0.8-1.5,2.3-2.1,3.6c-2.2,4.9-4,11.7-5.1,19.1c-0.3,2.2-2.4,3.7-4.6,3.4
					c-2.2-0.3-3.7-2.4-3.4-4.6c1.3-8.2,3.2-15.5,5.7-21.1c0.9-2.1,2-4.2,3.7-6c1-1,4.5-4.3,9.1-4.2c4.4,0.1,9.2,3.9,12.1,9.7
					c2.3,4.6,3.4,8.3,4.3,12.7c0.4,1.8,0.6,2.9,0.8,3.7c0.4,1.7,0.6,2.7,1.1,6c0.3,2.2-1.3,4.3-3.5,4.6
					C256.5,271.6,256.3,271.6,256.2,271.6z"/>
			</g>
			<g>
				<path class="st0" d="M206.4,270.4c-2.2,0-4.1-1.8-4.1-4.1v-11.7c0-2.2,1.8-4.1,4.1-4.1s4.1,1.8,4.1,4.1v11.7
					C210.5,268.6,208.6,270.4,206.4,270.4z"/>
			</g>
			<g>
				<path class="st0" d="M217.2,270.4c-2.2,0-4.1-1.8-4.1-4.1v-11.7c0-2.2,1.8-4.1,4.1-4.1s4.1,1.8,4.1,4.1v11.7
					C221.3,268.6,219.5,270.4,217.2,270.4z"/>
			</g>
			<g>
				<path class="st0" d="M167.5,271.6c-0.2,0-0.3,0-0.5,0c-2.2-0.3-3.8-2.3-3.5-4.6c0.4-3.4,0.7-4.4,1.1-6c0.2-0.8,0.5-1.9,0.8-3.7
					c1-4.9,2.4-8.4,4.2-12.5c3.7-8.5,8-9.8,12.1-9.9l0.1,0c4.5-0.2,8.1,3.2,9.1,4.2c1.7,1.8,2.8,4,3.7,6c2.5,5.6,4.4,12.9,5.7,21.1
					c0.3,2.2-1.2,4.3-3.4,4.6c-2.2,0.3-4.3-1.2-4.6-3.4c-1.1-7.4-3-14.2-5.1-19.1c-0.6-1.3-1.3-2.7-2.1-3.6c-0.9-1-2.2-1.7-3-1.7
					c0,0,0,0,0,0l-0.2,0c-1.5,0-2.7,0.1-4.9,5c-1.7,3.9-2.8,6.8-3.7,10.9c-0.4,2-0.7,3.1-0.9,4c-0.3,1.4-0.5,2.1-0.9,5.2
					C171.3,270.1,169.5,271.6,167.5,271.6z"/>
			</g>
		</g>
	</g>
	<g>
		<path class="st1" d="M100.3,452.6c4.2,13.1,13.6,28.4,28.4,28.6l1.7-0.3c6.5,7.1,14.7,12.9,24.2,15.1c2.6,0.6,7,1.7,9.3-0.3
			c2.8-2.4-0.2-1.9,0.5-4.4c3.1,0.2,6.3,4.2,8.9,5.9c4.8,3.2,25.4,14.3,30.9,9.4c3.7-3.3-1.2-14.9-3.2-18.3c-3.4-5.8-7.4-11-12-15.7
			l0.4-0.1c2.9,1.2,7.8,2.5,9-1.7c0.8-2.7-0.8-6.2-1.7-8.7c-2.9-7.8-8.2-15.2-14.4-20.7c-5-4.5-13.9-5.6-17.6-11.6
			c-2-3.2-3-7-5.2-10.2c-2.4-3.4-5.4-6.5-9-8.7C119.7,392.3,88.6,416.1,100.3,452.6z"/>
		<g>
			<g>
				<path class="st0" d="M200,511.7c-11.4,0-28.7-11.1-28.9-11.2c-12.5-8.3-22.7-20.1-27.4-31.5c-0.9-2.1,0.1-4.5,2.2-5.3
					c2.1-0.8,4.5,0.1,5.3,2.2c4,9.9,13.4,20.5,24.4,27.8c9.4,6.3,23.2,11.1,25.8,9.8c0.6-1.8-1.2-8.8-3.9-13.3
					c-7.5-13.1-19.4-23.9-35.2-32.2c-2-1-2.8-3.5-1.7-5.5c1-2,3.5-2.8,5.5-1.7c17.2,9,30.2,20.9,38.5,35.3c0.1,0.2,9.5,17,2.4,23.4
					C205.1,511,202.7,511.7,200,511.7z M201.3,503.6L201.3,503.6L201.3,503.6z"/>
			</g>
			<g>
				<path class="st0" d="M193.9,477.9c-2.3,0-4.9-1.1-7.8-3.3c-1.8-1.3-2.2-3.9-0.9-5.7c1.3-1.8,3.9-2.2,5.7-0.9
					c0.8,0.6,1.4,1,1.9,1.2c0.1-1.4-0.2-3.3-0.9-5.1c-2.5-6.8-7.3-13.8-13.3-19.1c-6.8-6.1-19.5-11.9-28.3-13
					c-2.2-0.3-3.8-2.3-3.5-4.5c0.3-2.2,2.3-3.8,4.5-3.5c10.3,1.3,24.7,7.9,32.6,15c7,6.3,12.5,14.2,15.5,22.3
					c0.7,1.9,2.1,6.7,0.9,11.1c-0.9,3.3-3.1,4.5-4.3,5C195.4,477.8,194.7,477.9,193.9,477.9z"/>
			</g>
			<g>
				<path class="st0" d="M128.7,485.2C128.6,485.2,128.6,485.2,128.7,485.2c-7.9-0.1-15.2-3.8-21.2-10.8c-4.6-5.3-8.5-12.6-11-20.5
					c-5.9-18.3-1.7-35.9,11-45.9c12.6-9.9,30.2-10.1,46.1-0.6c7.7,4.7,18.8,16.1,22.2,25c0.8,2.1-0.2,4.4-2.3,5.3
					c-2.1,0.8-4.4-0.2-5.3-2.3c-2.7-7-12.5-17.2-18.8-21c-12.9-7.8-27.1-7.8-36.9,0c-10,7.9-13.1,21.8-8.2,37.1
					c4,12.3,12.5,25.6,24.6,25.7c2.2,0,4,1.9,4,4.1C132.7,483.4,130.9,485.2,128.7,485.2z"/>
			</g>
			<g>
				<path class="st0" d="M160.1,500.9c-2.3,0-4.6-0.5-6.3-0.9l-0.2,0c-12.1-2.8-21.3-10.8-26.9-17c-6.4-7.2-9.4-17.8-8.9-31.6
					c0.1-2.2,2-4,4.2-3.9c2.2,0.1,4,2,3.9,4.2c-0.5,11.6,1.8,20.3,6.8,25.9c4.8,5.3,12.6,12.2,22.7,14.5l0.2,0
					c2.3,0.5,3.9,0.8,4.9,0.7c-0.1-0.1-0.1-0.2-0.2-0.3c-0.4-0.6-0.9-1.2-1.3-1.9c-1.1-1.9-0.5-4.4,1.4-5.6c1.9-1.1,4.4-0.5,5.6,1.4
					c0.2,0.4,0.5,0.8,0.9,1.2c1.2,1.6,4.8,6.7-0.4,11.1C164.7,500.4,162.4,500.9,160.1,500.9z M161.2,493.8L161.2,493.8L161.2,493.8
					z"/>
			</g>
		</g>
	</g>
</g>
</svg>
